<svg xmlns="http://www.w3.org/2000/svg" width="279.021" height="32.119" viewBox="0 0 279.021 32.119">
  <path id="Cafe_Search" data-name="Cafe Search" d="M135.259.91c-4.56,0-9.13-1.4-11.642-3.565l-.282-.243,2.26-5.073.506.406a15.463,15.463,0,0,0,9.158,3.047,8.582,8.582,0,0,0,4.582-.986,2.559,2.559,0,0,0,1.273-2.245c0-2.283-2.978-2.993-6.427-3.814a24.241,24.241,0,0,1-7.053-2.464,7.15,7.15,0,0,1-3.576-6.514,8.324,8.324,0,0,1,.745-3.5,8.137,8.137,0,0,1,2.267-2.906c2.123-1.74,5.252-2.66,9.05-2.66a18.632,18.632,0,0,1,9.827,2.624l.344.225L144.238-21.7l-.5-.293a15.429,15.429,0,0,0-7.66-2.186,7.9,7.9,0,0,0-4.49,1.042,2.737,2.737,0,0,0-1.242,2.353c0,2.246,2.968,2.952,6.405,3.769a24.38,24.38,0,0,1,7.038,2.448,7.075,7.075,0,0,1,3.572,6.453,8.075,8.075,0,0,1-3.034,6.374C142.192-.008,139.056.91,135.259.91Zm-10.7-4.088c2.372,1.857,6.606,3.088,10.7,3.088,3.564,0,6.482-.84,8.438-2.43a7,7,0,0,0,2.665-5.6,6.069,6.069,0,0,0-3.1-5.6,23.3,23.3,0,0,0-6.743-2.325,23.594,23.594,0,0,1-4.858-1.5,3.545,3.545,0,0,1-2.316-3.243,3.734,3.734,0,0,1,1.669-3.172,8.837,8.837,0,0,1,5.063-1.223,16.326,16.326,0,0,1,7.664,2.04l1.309-3.226a17.932,17.932,0,0,0-8.932-2.242c-8.156,0-11.062,4.168-11.062,8.069a6.143,6.143,0,0,0,3.1,5.665,23.163,23.163,0,0,0,6.756,2.34,23.447,23.447,0,0,1,4.873,1.51,3.579,3.579,0,0,1,2.322,3.277,3.549,3.549,0,0,1-1.73,3.085,9.512,9.512,0,0,1-5.125,1.146,16.84,16.84,0,0,1-5.358-.913A15.2,15.2,0,0,1,125.988-6.4ZM17.138.91A16.189,16.189,0,0,1,5.835-3.4,14.966,14.966,0,0,1,1.3-14.35,14.952,14.952,0,0,1,5.841-25.3,16.255,16.255,0,0,1,17.179-29.61a15.07,15.07,0,0,1,11.737,4.972l.31.362-4.158,3.911-.342-.369a9.608,9.608,0,0,0-7.3-3.2c-5.741,0-9.75,3.942-9.75,9.586s4.009,9.586,9.75,9.586A9.516,9.516,0,0,0,24.722-8l.344-.378,4.157,3.959-.308.36A13.576,13.576,0,0,1,23.8-.359,17.107,17.107,0,0,1,17.138.91Zm.041-29.52c-8.619,0-14.875,6-14.875,14.26S8.543-.09,17.138-.09a14.263,14.263,0,0,0,10.7-4.268l-2.731-2.6a10.435,10.435,0,0,1-7.685,3.2,10.88,10.88,0,0,1-7.7-2.972A10.522,10.522,0,0,1,6.675-14.35a10.522,10.522,0,0,1,3.046-7.614,10.88,10.88,0,0,1,7.7-2.972,10.528,10.528,0,0,1,7.684,3.16l2.73-2.568A14.21,14.21,0,0,0,17.179-28.61ZM241.408.787a12.751,12.751,0,0,1-8.867-3.294,11.467,11.467,0,0,1-3.482-8.44,12.1,12.1,0,0,1,.916-4.71,10.834,10.834,0,0,1,2.567-3.71,11.563,11.563,0,0,1,3.916-2.415,14.084,14.084,0,0,1,4.95-.858,12.3,12.3,0,0,1,5.879,1.356,9.161,9.161,0,0,1,3.915,4l.213.42-4.761,2.777-.257-.41a5.693,5.693,0,0,0-5.029-2.8c-3.674,0-6.142,2.551-6.142,6.347S237.693-4.6,241.367-4.6A5.693,5.693,0,0,0,246.4-7.4l.257-.41,4.763,2.778-.216.421C249.443-1.18,245.874.787,241.408.787Zm0-22.427c-6.682,0-11.349,4.4-11.349,10.693,0,6.32,4.667,10.734,11.349,10.734,3.891,0,7.024-1.611,8.676-4.438l-3.11-1.814a6.787,6.787,0,0,1-2.321,2.073,6.875,6.875,0,0,1-3.286.792,7.137,7.137,0,0,1-5.088-1.969,7.362,7.362,0,0,1-2.054-5.378,7.36,7.36,0,0,1,2.054-5.361,7.122,7.122,0,0,1,5.088-1.986,6.875,6.875,0,0,1,3.286.792,6.787,6.787,0,0,1,2.321,2.073l3.112-1.816C248.451-20.084,245.389-21.64,241.408-21.64ZM189.707.787a9.732,9.732,0,0,1-6.273-1.964,6.48,6.48,0,0,1-2.386-5.1,6.214,6.214,0,0,1,2.245-5.016c1.637-1.329,4.112-2,7.357-2h5.156a3.927,3.927,0,0,0-1.19-2.956,5.5,5.5,0,0,0-3.761-1.128,10.34,10.34,0,0,0-6.324,2.059l-.47.388-2.5-4.641.336-.259a12.828,12.828,0,0,1,4.356-2.115,19.052,19.052,0,0,1,5.216-.7c3.326,0,5.911.812,7.684,2.415,1.844,1.666,2.779,4.153,2.779,7.392V.5H196.1V-1.3a6.851,6.851,0,0,1-1.976,1.275A11.079,11.079,0,0,1,189.707.787Zm.943-13.079c-3.01,0-5.273.6-6.727,1.779a5.18,5.18,0,0,0-1.875,4.24c0,3.625,3.078,6.06,7.659,6.06,3.07,0,5.307-.942,6.469-2.725l.919-1.409V-.5h3.838V-12.833c0-5.844-3.184-8.807-9.463-8.807a15.309,15.309,0,0,0-8.62,2.351l1.526,2.834a11.688,11.688,0,0,1,6.479-1.922,6.441,6.441,0,0,1,4.429,1.384,4.957,4.957,0,0,1,1.524,3.872v.828ZM165.23.787a12.982,12.982,0,0,1-9.143-3.309,10.733,10.733,0,0,1-2.556-3.729,12.25,12.25,0,0,1-.9-4.7,11.638,11.638,0,0,1,3.363-8.4,11.913,11.913,0,0,1,8.453-3.3,12.546,12.546,0,0,1,4.611.84,10.664,10.664,0,0,1,3.677,2.4,10.807,10.807,0,0,1,2.418,3.741,13.281,13.281,0,0,1,.864,4.838c0,.482-.052,1.183-.084,1.559l-.038.458h-17c.779,2.637,3.2,4.248,6.458,4.248a7.4,7.4,0,0,0,5.587-2.227l.379-.389,3.384,3.89-.276.327C172.364-.508,169.184.787,165.23.787Zm-.779-22.427a10.4,10.4,0,0,0-10.816,10.693c0,6.42,4.66,10.734,11.6,10.734,3.47,0,6.277-1.06,8.15-3.07l-2.113-2.428a8.387,8.387,0,0,1-5.914,2.152c-4.007,0-6.913-2.166-7.584-5.654l-.114-.594h17.321c.029-.418.045-.776.045-1.017C175.021-17.192,170.674-21.64,164.451-21.64ZM92.783.787A12.982,12.982,0,0,1,83.64-2.522a10.733,10.733,0,0,1-2.556-3.729,12.25,12.25,0,0,1-.9-4.7,11.638,11.638,0,0,1,3.363-8.4A11.913,11.913,0,0,1,92-22.64a12.546,12.546,0,0,1,4.611.84,10.665,10.665,0,0,1,3.677,2.4,10.807,10.807,0,0,1,2.418,3.741,13.281,13.281,0,0,1,.864,4.838c0,.482-.052,1.183-.084,1.559l-.038.458h-17c.779,2.637,3.2,4.248,6.458,4.248a7.4,7.4,0,0,0,5.587-2.227l.379-.389,3.384,3.89-.276.327C99.917-.508,96.737.787,92.783.787ZM92-21.64A10.4,10.4,0,0,0,81.188-10.947c0,6.42,4.66,10.734,11.6,10.734,3.47,0,6.277-1.06,8.15-3.07L98.82-5.711a8.387,8.387,0,0,1-5.914,2.152c-4.007,0-6.913-2.166-7.584-5.654l-.114-.594h17.321c.029-.418.045-.776.045-1.017C102.574-17.192,98.227-21.64,92-21.64ZM42.845.787a9.732,9.732,0,0,1-6.273-1.964,6.48,6.48,0,0,1-2.386-5.1,6.214,6.214,0,0,1,2.245-5.016c1.637-1.329,4.112-2,7.357-2h5.156a3.927,3.927,0,0,0-1.19-2.956,5.5,5.5,0,0,0-3.761-1.128,10.34,10.34,0,0,0-6.324,2.059l-.47.388-2.5-4.641.336-.259a12.828,12.828,0,0,1,4.356-2.115,19.052,19.052,0,0,1,5.216-.7c3.326,0,5.911.812,7.684,2.415,1.844,1.666,2.779,4.153,2.779,7.392V.5H49.233V-1.3A6.851,6.851,0,0,1,47.257-.023,11.079,11.079,0,0,1,42.845.787Zm.943-13.079c-3.01,0-5.273.6-6.727,1.779a5.18,5.18,0,0,0-1.875,4.24c0,3.625,3.078,6.06,7.659,6.06,3.069,0,5.307-.942,6.469-2.725l.919-1.409V-.5h3.838V-12.833c0-5.844-3.184-8.807-9.463-8.807a15.309,15.309,0,0,0-8.62,2.351l1.526,2.834a11.688,11.688,0,0,1,6.479-1.922,6.441,6.441,0,0,1,4.429,1.384,4.957,4.957,0,0,1,1.524,3.872v.828ZM280.325.5H274.2V-11.89c0-3.5-1.584-5.281-4.707-5.281-3.565,0-5.609,2.224-5.609,6.1V.5h-6.125V-30.922h6.125v10.427a10.774,10.774,0,0,1,6.8-2.145,9.665,9.665,0,0,1,6.887,2.462c1.829,1.766,2.756,4.333,2.756,7.632ZM275.2-.5h4.125V-12.546c0-5.779-3.15-9.094-8.643-9.094a9.289,9.289,0,0,0-6.932,2.629l-.866.929v-11.84h-4.125V-.5h4.125V-11.07c0-4.446,2.471-7.1,6.609-7.1,3.68,0,5.707,2.231,5.707,6.281ZM216.9.5h-6.125V-22.394h5.879v2.275a7.583,7.583,0,0,1,2.379-1.618,12.212,12.212,0,0,1,4.911-.9h.5v5.978l-.589-.107a6.036,6.036,0,0,0-1.1-.115c-3.776,0-5.855,2.225-5.855,6.265Zm-5.125-1H215.9V-10.619a7.466,7.466,0,0,1,1.858-5.407,6.765,6.765,0,0,1,5-1.858,5.909,5.909,0,0,1,.689.042v-3.79c-3.255.1-5.564,1.176-6.869,3.207l-.921,1.432v-4.4h-3.879ZM70.733.5H64.608V-17.13H61v-5.1h3.608v-.894a8.069,8.069,0,0,1,2.155-5.868,8.495,8.495,0,0,1,6.176-2.217,8.607,8.607,0,0,1,4.924,1.282l.312.223-1.792,4.812-.528-.361a4.571,4.571,0,0,0-2.547-.815c-1.869,0-2.739.962-2.739,3.026v.812H76.6v5.1H70.733Zm-5.125-1h4.125V-18.13H75.6v-3.1H69.569v-1.812c0-2.6,1.328-4.026,3.739-4.026a5.42,5.42,0,0,1,2.571.661l1.084-2.911a8.145,8.145,0,0,0-4.024-.891c-4.659,0-7.331,2.582-7.331,7.085v1.894H62v3.1h3.608ZM190.773-2.944a5.67,5.67,0,0,1-3.371-.922,3.125,3.125,0,0,1-1.311-2.612,2.946,2.946,0,0,1,1.1-2.448,6.126,6.126,0,0,1,3.83-.963h5.789v3.134l-.033.086A6.056,6.056,0,0,1,190.773-2.944Zm.246-5.945a5.312,5.312,0,0,0-3.212.749,1.946,1.946,0,0,0-.716,1.662c0,1.587,1.376,2.534,3.682,2.534a5.11,5.11,0,0,0,5.035-3V-8.889ZM43.911-2.944a5.67,5.67,0,0,1-3.371-.922,3.125,3.125,0,0,1-1.311-2.612,2.946,2.946,0,0,1,1.1-2.448,6.126,6.126,0,0,1,3.83-.963h5.789v3.134l-.033.086A6.057,6.057,0,0,1,43.911-2.944Zm.246-5.945a5.312,5.312,0,0,0-3.212.749,1.945,1.945,0,0,0-.716,1.662c0,1.587,1.376,2.534,3.682,2.534a5.11,5.11,0,0,0,5.035-3V-8.889ZM171.211-12.21H157.636l.089-.576a6.75,6.75,0,0,1,2.223-4.167,6.774,6.774,0,0,1,4.5-1.587,6.471,6.471,0,0,1,6.687,5.766Zm-12.384-1h11.221a5.425,5.425,0,0,0-5.6-4.33A5.537,5.537,0,0,0,158.827-13.21Zm-60.063,1H85.189l.089-.576A6.75,6.75,0,0,1,87.5-16.953,6.774,6.774,0,0,1,92-18.54a6.471,6.471,0,0,1,6.687,5.766Zm-12.384-1H97.6A5.425,5.425,0,0,0,92-17.54,5.537,5.537,0,0,0,86.38-13.21Z" transform="translate(-1.304 31.209)" fill="#707070"/>
</svg>
