<svg xmlns="http://www.w3.org/2000/svg" width="258.316" height="31.832" viewBox="0 0 258.316 31.832">
  <path id="Chou_Chou" data-name="Chou Chou" d="M157.317.91a16.189,16.189,0,0,1-11.3-4.305,14.966,14.966,0,0,1-4.531-10.955A14.951,14.951,0,0,1,146.02-25.3a16.255,16.255,0,0,1,11.338-4.305,15.07,15.07,0,0,1,11.737,4.972l.31.362-4.158,3.911-.342-.369a9.608,9.608,0,0,0-7.3-3.2c-5.741,0-9.75,3.942-9.75,9.586s4.009,9.586,9.75,9.586A9.517,9.517,0,0,0,164.9-8l.344-.378L169.4-4.422l-.308.36a13.576,13.576,0,0,1-5.117,3.7A17.106,17.106,0,0,1,157.317.91Zm.041-29.52c-8.619,0-14.875,6-14.875,14.26S148.722-.09,157.317-.09a14.263,14.263,0,0,0,10.7-4.268l-2.731-2.6a10.435,10.435,0,0,1-7.685,3.2,10.88,10.88,0,0,1-7.7-2.972,10.522,10.522,0,0,1-3.046-7.614,10.522,10.522,0,0,1,3.046-7.614,10.88,10.88,0,0,1,7.7-2.972,10.528,10.528,0,0,1,7.684,3.16l2.73-2.568A14.21,14.21,0,0,0,157.358-28.61ZM17.138.91A16.189,16.189,0,0,1,5.835-3.4,14.966,14.966,0,0,1,1.3-14.35,14.952,14.952,0,0,1,5.841-25.3,16.255,16.255,0,0,1,17.179-29.61a15.07,15.07,0,0,1,11.737,4.972l.31.362-4.158,3.911-.342-.369a9.608,9.608,0,0,0-7.3-3.2c-5.741,0-9.75,3.942-9.75,9.586s4.009,9.586,9.75,9.586A9.517,9.517,0,0,0,24.722-8l.344-.378,4.157,3.959-.308.36A13.576,13.576,0,0,1,23.8-.359,17.106,17.106,0,0,1,17.138.91Zm.041-29.52c-8.619,0-14.875,6-14.875,14.26S8.543-.09,17.138-.09a14.263,14.263,0,0,0,10.7-4.268l-2.731-2.6a10.435,10.435,0,0,1-7.685,3.2,10.88,10.88,0,0,1-7.7-2.972A10.522,10.522,0,0,1,6.675-14.35a10.522,10.522,0,0,1,3.046-7.614,10.88,10.88,0,0,1,7.7-2.972,10.528,10.528,0,0,1,7.684,3.16l2.73-2.568A14.21,14.21,0,0,0,17.179-28.61ZM247.189.787c-6.311,0-9.93-3.709-9.93-10.176V-22.394h6.125v12.308c0,3.559,1.556,5.363,4.625,5.363,3.486,0,5.486-2.224,5.486-6.1v-11.57h6.125V.5h-5.879V-1.547A9.787,9.787,0,0,1,247.189.787Zm-8.93-22.181V-9.389c0,5.917,3.171,9.176,8.93,9.176A8.475,8.475,0,0,0,253.854-3.1l.887-1.087V-.5h3.879V-21.394H254.5v10.57A7.393,7.393,0,0,1,252.7-5.533a6.285,6.285,0,0,1-4.693,1.81,5.33,5.33,0,0,1-4.148-1.6,6.9,6.9,0,0,1-1.477-4.758V-21.394ZM218.038.787c-7.037,0-12.144-4.935-12.144-11.734a11.48,11.48,0,0,1,3.455-8.418,12.448,12.448,0,0,1,8.689-3.275,12.518,12.518,0,0,1,8.74,3.275,11.477,11.477,0,0,1,3.445,8.418,11.537,11.537,0,0,1-3.444,8.438A12.484,12.484,0,0,1,218.038.787Zm0-22.427c-6.457,0-11.144,4.5-11.144,10.693,0,6.22,4.687,10.734,11.144,10.734,6.586,0,11.185-4.414,11.185-10.734C229.223-17.243,224.624-21.64,218.038-21.64ZM107.01.787c-6.311,0-9.93-3.709-9.93-10.176V-22.394h6.125v12.308c0,3.559,1.556,5.363,4.625,5.363,3.486,0,5.486-2.224,5.486-6.1v-11.57h6.125V.5h-5.879V-1.547A9.786,9.786,0,0,1,107.01.787ZM98.08-21.394V-9.389c0,5.917,3.171,9.176,8.93,9.176A8.475,8.475,0,0,0,113.675-3.1l.887-1.087V-.5h3.879V-21.394h-4.125v10.57a7.393,7.393,0,0,1-1.793,5.291,6.285,6.285,0,0,1-4.693,1.81,5.33,5.33,0,0,1-4.148-1.6,6.9,6.9,0,0,1-1.477-4.758V-21.394ZM77.859.787c-7.037,0-12.144-4.935-12.144-11.734a11.48,11.48,0,0,1,3.455-8.418,12.448,12.448,0,0,1,8.689-3.275,12.518,12.518,0,0,1,8.74,3.275,11.477,11.477,0,0,1,3.445,8.418A11.537,11.537,0,0,1,86.6-2.509,12.484,12.484,0,0,1,77.859.787Zm0-22.427c-6.457,0-11.144,4.5-11.144,10.693,0,6.22,4.687,10.734,11.144,10.734,6.586,0,11.185-4.414,11.185-10.734C89.044-17.243,84.445-21.64,77.859-21.64ZM198.694.5h-6.125V-11.89c0-3.5-1.584-5.281-4.707-5.281-3.565,0-5.609,2.224-5.609,6.1V.5h-6.125V-30.922h6.125v10.427a10.774,10.774,0,0,1,6.8-2.145,9.664,9.664,0,0,1,6.887,2.462c1.829,1.766,2.756,4.333,2.756,7.632Zm-5.125-1h4.125V-12.546c0-5.779-3.15-9.094-8.643-9.094a9.289,9.289,0,0,0-6.932,2.629l-.866.929v-11.84h-4.125V-.5h4.125V-11.07c0-4.446,2.471-7.1,6.609-7.1,3.68,0,5.707,2.231,5.707,6.281ZM58.515.5H52.39V-11.89c0-3.5-1.584-5.281-4.707-5.281-3.565,0-5.609,2.224-5.609,6.1V.5H35.949V-30.922h6.125v10.427a10.774,10.774,0,0,1,6.8-2.145,9.664,9.664,0,0,1,6.887,2.462c1.829,1.766,2.756,4.333,2.756,7.632ZM53.39-.5h4.125V-12.546c0-5.779-3.15-9.094-8.643-9.094a9.289,9.289,0,0,0-6.932,2.629l-.866.929v-11.84H36.949V-.5h4.125V-11.07c0-4.446,2.471-7.1,6.609-7.1,3.68,0,5.707,2.231,5.707,6.281ZM218.038-3.6a6.861,6.861,0,0,1-4.981-2.006,7.459,7.459,0,0,1-2-5.341,7.459,7.459,0,0,1,2-5.341,6.861,6.861,0,0,1,4.981-2.006c4.133,0,7.019,3.021,7.019,7.347S222.171-3.6,218.038-3.6Zm0-13.694c-3.52,0-5.978,2.61-5.978,6.347S214.518-4.6,218.038-4.6c3.6,0,6.019-2.551,6.019-6.347S221.638-17.294,218.038-17.294ZM77.859-3.6a6.861,6.861,0,0,1-4.981-2.006,7.459,7.459,0,0,1-2-5.341,7.459,7.459,0,0,1,2-5.341,6.861,6.861,0,0,1,4.981-2.006c4.133,0,7.019,3.021,7.019,7.347S81.992-3.6,77.859-3.6Zm0-13.694c-3.52,0-5.978,2.61-5.978,6.347S74.339-4.6,77.859-4.6c3.6,0,6.019-2.551,6.019-6.347S81.459-17.294,77.859-17.294Z" transform="translate(-1.304 30.922)" fill="#707070"/>
</svg>
