<svg xmlns="http://www.w3.org/2000/svg" width="30.736" height="30.736" viewBox="0 0 30.736 30.736">
  <path id="twitter" d="M24.333,0H6.4A6.4,6.4,0,0,0,0,6.4v17.93a6.4,6.4,0,0,0,6.4,6.4h17.93a6.4,6.4,0,0,0,6.4-6.4V6.4A6.4,6.4,0,0,0,24.333,0Zm-.178,11.83A11.956,11.956,0,0,1,5.762,22.447a8.458,8.458,0,0,0,6.224-1.74,4.207,4.207,0,0,1-3.927-2.92,4.227,4.227,0,0,0,1.9-.072,4.208,4.208,0,0,1-3.372-4.175,4.183,4.183,0,0,0,1.9.526,4.212,4.212,0,0,1-1.3-5.613,11.936,11.936,0,0,0,8.665,4.393,4.206,4.206,0,0,1,7.164-3.833,8.431,8.431,0,0,0,2.672-1.019,4.221,4.221,0,0,1-1.848,2.326,8.425,8.425,0,0,0,2.414-.662,8.529,8.529,0,0,1-2.1,2.173Z" fill="#fff"/>
</svg>
