<svg xmlns="http://www.w3.org/2000/svg" width="30.736" height="30.736" viewBox="0 0 30.736 30.736">
  <path id="instagram" d="M15.368,2.77c4.1,0,4.59.015,6.211.09,4.165.19,6.11,2.166,6.3,6.3.074,1.62.088,2.107.088,6.21s-.015,4.59-.088,6.21c-.191,4.13-2.131,6.11-6.3,6.3-1.621.074-2.105.09-6.211.09s-4.59-.015-6.21-.09c-4.175-.191-6.11-2.176-6.3-6.3-.074-1.62-.09-2.105-.09-6.21s.017-4.589.09-6.21c.191-4.133,2.131-6.11,6.3-6.3,1.621-.073,2.107-.088,6.21-.088Zm0-2.77c-4.174,0-4.7.018-6.336.092C3.451.348.35,3.445.093,9.031.018,10.672,0,11.194,0,15.368s.018,4.7.092,6.337c.256,5.581,3.353,8.683,8.939,8.939,1.641.074,2.163.092,6.337.092s4.7-.018,6.337-.092c5.576-.256,8.686-3.353,8.938-8.939.076-1.639.093-2.163.093-6.337s-.018-4.7-.092-6.336C30.393,3.457,27.293.35,21.706.093,20.066.018,19.542,0,15.368,0Zm0,7.477a7.892,7.892,0,1,0,7.892,7.892A7.892,7.892,0,0,0,15.368,7.477Zm0,13.014a5.123,5.123,0,1,1,5.123-5.123A5.122,5.122,0,0,1,15.368,20.491Zm8.2-15.17a1.844,1.844,0,1,0,1.843,1.844A1.845,1.845,0,0,0,23.572,5.321Z" fill="#333"/>
</svg>
