<svg xmlns="http://www.w3.org/2000/svg" width="291.305" height="37.191" viewBox="0 0 291.305 37.191">
  <path id="パス_46" data-name="パス 46" d="M28.763-34.3v23.226L9.849-34.3H4.606V0h6.321V-23.226L29.841,0h5.243V-34.3ZM72.226-12.936c0-8.183-5.586-13.524-13.23-13.524-7.791,0-13.524,5.586-13.524,13.377S51.156.343,59.927.343c4.508,0,8.183-1.47,10.535-4.263L67.179-7.693a9.377,9.377,0,0,1-7.1,2.842c-4.557,0-7.742-2.45-8.477-6.272H72.128C72.177-11.711,72.226-12.446,72.226-12.936ZM59-21.56a7.123,7.123,0,0,1,7.4,6.37H51.548A7.232,7.232,0,0,1,59-21.56Zm57.918-4.606-7.105,19.4-7.056-19.4H97.608L90.4-6.86,83.5-26.166H77.714L87.318,0H93.2l6.86-18.032L106.82,0h5.88l9.653-26.166ZM138.229.343c7.35,0,11.858-3.185,11.858-8.085,0-10.241-16.17-5.537-16.17-10.829,0-1.715,1.764-2.94,5.488-2.94a14.323,14.323,0,0,1,7.5,1.96l2.352-4.655c-2.352-1.421-6.321-2.254-9.8-2.254-7.056,0-11.515,3.234-11.515,8.183,0,10.437,16.17,5.733,16.17,10.731,0,1.813-1.617,2.891-5.488,2.891a17.606,17.606,0,0,1-9.114-2.6L127.155-2.6C129.507-.931,133.868.343,138.229.343ZM193.207.49c5.635,0,10.437-2.009,13.622-5.733l-4.116-3.92A11.925,11.925,0,0,1,193.55-5.1c-7.1,0-12.25-5-12.25-12.054S186.445-29.2,193.55-29.2a12.046,12.046,0,0,1,9.163,4.018l4.116-3.871c-3.185-3.724-7.987-5.733-13.573-5.733-10.535,0-18.375,7.4-18.375,17.64S182.721.49,193.207.49Zm32.83-26.95c-4.214,0-8.281,1.078-11.074,3.234l2.4,4.459a12.954,12.954,0,0,1,7.938-2.6c4.361,0,6.517,2.107,6.517,5.684v.392h-6.762c-7.938,0-10.878,3.43-10.878,7.791,0,4.557,3.773,7.84,9.751,7.84,3.92,0,6.762-1.274,8.232-3.528V0h5.782V-15.337C237.944-22.883,233.583-26.46,226.037-26.46ZM225.2-4.116c-3.136,0-5-1.421-5-3.626,0-1.911,1.127-3.479,5.292-3.479h6.321v3.038C230.79-5.488,228.193-4.116,225.2-4.116Zm35.133-27.636a6.032,6.032,0,0,1,3.381,1.078l1.715-4.606A9.8,9.8,0,0,0,259.9-36.7c-6.076,0-9.359,3.577-9.359,9.065v1.666h-4.312v4.9h4.312V0h6.125V-21.07h7.007v-4.9h-7.2v-1.568C256.466-30.331,257.789-31.752,260.337-31.752Zm35.574,18.816c0-8.183-5.586-13.524-13.23-13.524-7.791,0-13.524,5.586-13.524,13.377S274.841.343,283.612.343c4.508,0,8.183-1.47,10.535-4.263l-3.283-3.773a9.377,9.377,0,0,1-7.105,2.842c-4.557,0-7.742-2.45-8.477-6.272h20.531C295.862-11.711,295.911-12.446,295.911-12.936Zm-13.23-8.624a7.123,7.123,0,0,1,7.4,6.37H275.233A7.232,7.232,0,0,1,282.681-21.56Z" transform="translate(-4.606 36.701)" fill="#333"/>
</svg>
